<?xml version="1.0" encoding="utf-8"?>
<!-- Generator: Adobe Illustrator 26.1.0, SVG Export Plug-In . SVG Version: 6.00 Build 0)  -->
<svg version="1.1" xmlns="http://www.w3.org/2000/svg" xmlns:xlink="http://www.w3.org/1999/xlink" x="0px" y="0px"
	 viewBox="0 0 117.64 90.71" style="enable-background:new 0 0 117.64 90.71;" xml:space="preserve">
<style type="text/css">
	.st0{fill:#3C3C3B;}
	.st1{fill:#24A95E;}
	.st2{fill:#62B558;}
	.st3{fill:#F49942;}
	.st4{fill:#EB5B53;}
	.st5{fill:#F59B42;}
	.st6{fill:#F4A69A;}
	.st7{fill:none;stroke:#E30613;stroke-width:0.25;stroke-miterlimit:10;}
	.st8{fill:none;stroke:#E30613;stroke-width:0.216;stroke-miterlimit:10;}
</style>
<g id="макет">
	<rect x="-107.54" y="41.69" class="st0" width="0.74" height="0.69"/>
	<g>
		<path class="st1" d="M-124.91,26.91c-9.34,2.71-15.5,6.63-16.69,7.43l-7.36-8.78c2.52-1.58,9.8-5.76,20.45-8.62L-124.91,26.91z"/>
		<path class="st2" d="M-107.04,14.09v10.2c-6.72,0.03-12.78,1.14-17.88,2.62l-3.59-9.97C-122.38,15.3-115.14,14.1-107.04,14.09"/>
		<path class="st3" d="M-85.52,16.91l-3.53,9.95c-6.34-1.88-12.4-2.6-17.99-2.57v-10.2C-100.38,14.08-93.17,14.88-85.52,16.91"/>
		<path class="st4" d="M-64.55,25.33l-7.68,9.16c-5.74-3.56-11.39-6.02-16.81-7.63l3.53-9.95C-78.82,18.68-71.8,21.38-64.55,25.33"
			/>
		<path class="st0" d="M-150.33,24.06c-0.22-0.06-0.41-0.21-0.56-0.45l-0.76-1.22c-0.15-0.24-0.2-0.47-0.14-0.68
			c0.06-0.21,0.22-0.39,0.49-0.54c0.27-0.15,0.52-0.19,0.74-0.14c0.22,0.06,0.41,0.21,0.56,0.45l0.76,1.22
			c0.15,0.24,0.2,0.47,0.14,0.68c-0.06,0.21-0.22,0.39-0.49,0.54C-149.86,24.08-150.11,24.12-150.33,24.06 M-149.56,23.29
			c0.02-0.11,0-0.23-0.08-0.36l-0.76-1.22c-0.08-0.13-0.18-0.21-0.29-0.25c-0.11-0.03-0.24-0.01-0.38,0.07
			c-0.14,0.08-0.23,0.17-0.25,0.28c-0.02,0.11,0,0.23,0.08,0.36l0.76,1.22c0.08,0.13,0.18,0.21,0.29,0.24
			c0.11,0.03,0.24,0.01,0.38-0.07C-149.67,23.49-149.59,23.4-149.56,23.29z"/>
		<path class="st0" d="M-69.55,21.32c-0.09-0.11-0.15-0.23-0.17-0.37c-0.02-0.14-0.01-0.29,0.04-0.45l0,0l0.43,0.19l0,0
			c-0.04,0.11-0.03,0.21,0.01,0.3c0.04,0.09,0.13,0.16,0.24,0.21c0.14,0.06,0.26,0.06,0.38,0.01c0.12-0.05,0.21-0.16,0.29-0.31
			l0.12-0.24c0.08-0.15,0.1-0.29,0.06-0.41c-0.03-0.12-0.12-0.2-0.25-0.26c-0.07-0.03-0.15-0.04-0.24-0.03
			c-0.09,0.01-0.17,0.04-0.26,0.08l-0.39-0.17l0.73-1.49l1.55,0.67l-0.19,0.38l-1.12-0.49l-0.31,0.64c0.07-0.02,0.15-0.02,0.22-0.02
			c0.08,0.01,0.15,0.03,0.22,0.05c0.18,0.08,0.31,0.18,0.4,0.3c0.09,0.12,0.14,0.26,0.14,0.42c0,0.16-0.04,0.33-0.13,0.51
			l-0.12,0.24c-0.09,0.18-0.2,0.32-0.33,0.43c-0.13,0.1-0.28,0.16-0.44,0.17c-0.16,0.01-0.33-0.02-0.51-0.1
			C-69.33,21.51-69.45,21.43-69.55,21.32"/>
		<path class="st0" d="M-67.4,22.11c-0.07-0.21-0.04-0.44,0.09-0.69l0.67-1.27c0.13-0.25,0.31-0.41,0.53-0.48
			c0.22-0.07,0.47-0.04,0.75,0.09c0.28,0.13,0.46,0.3,0.53,0.5c0.07,0.21,0.04,0.43-0.09,0.69l-0.67,1.27
			c-0.13,0.25-0.31,0.41-0.53,0.48c-0.22,0.07-0.47,0.04-0.75-0.09C-67.15,22.48-67.33,22.31-67.4,22.11 M-66.29,22.28
			c0.11-0.04,0.2-0.13,0.27-0.26l0.67-1.27c0.07-0.14,0.09-0.26,0.06-0.36c-0.03-0.1-0.12-0.19-0.27-0.26
			c-0.15-0.07-0.28-0.08-0.39-0.04c-0.11,0.04-0.2,0.13-0.27,0.26l-0.67,1.27c-0.07,0.14-0.09,0.26-0.06,0.36
			c0.03,0.11,0.12,0.19,0.27,0.26C-66.53,22.31-66.4,22.32-66.29,22.28z"/>
		<path class="st0" d="M-65.17,23.16c-0.06-0.21-0.03-0.44,0.11-0.68l0.71-1.25c0.14-0.25,0.32-0.4,0.54-0.47
			c0.22-0.07,0.47-0.03,0.74,0.11c0.28,0.14,0.45,0.31,0.51,0.52c0.07,0.21,0.03,0.44-0.11,0.68l-0.71,1.25
			c-0.14,0.25-0.32,0.4-0.54,0.47c-0.22,0.06-0.47,0.03-0.75-0.11C-64.93,23.54-65.11,23.36-65.17,23.16 M-64.07,23.36
			c0.11-0.04,0.2-0.12,0.28-0.25l0.71-1.25c0.08-0.13,0.1-0.25,0.07-0.36c-0.03-0.11-0.12-0.2-0.26-0.27
			c-0.15-0.07-0.28-0.09-0.39-0.06c-0.11,0.04-0.2,0.12-0.28,0.26l-0.71,1.25c-0.08,0.13-0.1,0.25-0.07,0.36
			c0.03,0.11,0.12,0.2,0.26,0.27C-64.3,23.38-64.17,23.4-64.07,23.36z"/>
		<path class="st0" d="M-121.59,31.85h0.6l1.85,4.72h-0.76l-1.39-3.81l-1.39,3.81h-0.76L-121.59,31.85z M-122.58,34.91h2.64v0.63
			h-2.64V34.91z"/>
		<path class="st0" d="M-117.91,36.41c-0.27-0.14-0.47-0.35-0.62-0.61c-0.15-0.26-0.22-0.57-0.22-0.91v-1.34
			c0-0.35,0.07-0.65,0.22-0.91c0.15-0.26,0.35-0.47,0.62-0.61c0.27-0.14,0.58-0.22,0.93-0.22c0.35,0,0.66,0.07,0.93,0.22
			c0.27,0.14,0.47,0.35,0.62,0.61c0.15,0.26,0.22,0.57,0.22,0.91v1.34c0,0.35-0.07,0.65-0.22,0.91c-0.15,0.26-0.35,0.47-0.62,0.61
			c-0.27,0.14-0.58,0.22-0.93,0.22C-117.34,36.62-117.64,36.55-117.91,36.41 M-116.44,35.84c0.16-0.09,0.28-0.21,0.37-0.37
			c0.09-0.16,0.13-0.35,0.13-0.56v-1.38c0-0.21-0.04-0.4-0.13-0.56c-0.09-0.16-0.21-0.29-0.37-0.37c-0.16-0.09-0.34-0.13-0.55-0.13
			c-0.21,0-0.39,0.04-0.55,0.13c-0.16,0.09-0.28,0.21-0.37,0.37c-0.09,0.16-0.13,0.35-0.13,0.56v1.38c0,0.21,0.04,0.4,0.13,0.56
			c0.09,0.16,0.21,0.29,0.37,0.37c0.16,0.09,0.34,0.13,0.55,0.13C-116.78,35.97-116.6,35.92-116.44,35.84z M-117,35.26l0.37-0.44
			l1.87,1.38l-0.37,0.44L-117,35.26z"/>
		<rect x="-112.1" y="31.85" class="st0" width="0.7" height="4.72"/>
		<polygon class="st0" points="-110.15,31.85 -109.51,31.85 -107.05,35.5 -107.14,35.59 -107.14,31.85 -106.44,31.85 -106.44,36.57 
			-107.08,36.57 -109.53,32.98 -109.45,32.89 -109.45,36.57 -110.15,36.57 		"/>
		<path class="st0" d="M-105.19,31.85h0.7v4.72h-0.7V31.85z M-104.72,35.94h1.14c0.37,0,0.66-0.09,0.86-0.27
			c0.2-0.18,0.31-0.44,0.31-0.76v-1.39c0-0.33-0.1-0.58-0.31-0.76c-0.2-0.18-0.49-0.27-0.86-0.27h-1.14v-0.63h1.12
			c0.4,0,0.75,0.07,1.03,0.2c0.29,0.13,0.5,0.32,0.65,0.58c0.15,0.25,0.23,0.56,0.23,0.91v1.34c0,0.36-0.08,0.66-0.23,0.91
			c-0.15,0.25-0.37,0.45-0.65,0.58c-0.29,0.13-0.63,0.2-1.04,0.2h-1.11V35.94z"/>
		<path class="st0" d="M-100.62,31.85h0.7v4.72h-0.7V31.85z M-100.28,31.85h2.89v0.63h-2.89V31.85z M-100.28,33.92h2.51v0.63h-2.51
			V33.92z M-100.28,35.94h2.89v0.63h-2.89V35.94z"/>
		<path class="st0" d="M-95.19,33.88l1.26-2.02h0.79l-1.66,2.55l-1.35,2.16h-0.79L-95.19,33.88z M-95.16,34.5l-0.11-0.16l-1.63-2.48
			h0.79l1.21,1.92l0.11,0.18l1.72,2.62h-0.79L-95.16,34.5z"/>
		<path class="st0" d="M-116.2,37.67h0.7v4.72h-0.7V37.67z M-115.83,39.93h1.61c0.15,0,0.29-0.03,0.4-0.1
			c0.12-0.07,0.2-0.16,0.27-0.29c0.06-0.12,0.1-0.26,0.1-0.43c0-0.16-0.03-0.3-0.1-0.43c-0.06-0.12-0.15-0.22-0.27-0.29
			c-0.12-0.07-0.25-0.1-0.4-0.1h-1.61v-0.63h1.58c0.3,0,0.56,0.06,0.79,0.18c0.23,0.12,0.4,0.29,0.53,0.51
			c0.13,0.22,0.19,0.47,0.19,0.76c0,0.29-0.06,0.54-0.19,0.76c-0.12,0.22-0.3,0.39-0.53,0.5c-0.23,0.12-0.49,0.18-0.79,0.18h-1.58
			V39.93z"/>
		<polygon class="st0" points="-108.25,37.67 -107.59,37.67 -107.59,42.39 -108.28,42.39 -108.28,38.85 -108.24,39.06 
			-109.48,41.73 -109.97,41.73 -111.21,39.13 -111.17,38.85 -111.17,42.39 -111.86,42.39 -111.86,37.67 -111.2,37.67 -109.72,40.78 
					"/>
		<path class="st0" d="M-106.52,41.81l1.75-2.19c0.1-0.13,0.18-0.26,0.24-0.39c0.06-0.14,0.08-0.26,0.08-0.38v-0.01
			c0-0.19-0.06-0.33-0.18-0.44c-0.12-0.1-0.28-0.16-0.5-0.16c-0.2,0-0.37,0.06-0.5,0.17c-0.13,0.11-0.2,0.27-0.23,0.48v0h-0.73v0
			c0.04-0.27,0.13-0.5,0.25-0.69c0.13-0.19,0.29-0.34,0.5-0.44c0.2-0.1,0.44-0.15,0.7-0.15c0.3,0,0.56,0.05,0.77,0.14
			c0.21,0.1,0.37,0.24,0.48,0.42c0.11,0.18,0.17,0.41,0.17,0.67v0c0,0.17-0.04,0.34-0.11,0.52c-0.07,0.18-0.18,0.36-0.31,0.53
			l-1.45,1.86h1.9v0.63h-2.83V41.81z"/>
		<path class="st0" d="M-100.46,42.29c-0.2-0.09-0.36-0.23-0.48-0.41c-0.12-0.18-0.21-0.39-0.25-0.64v0h0.71v0
			c0.02,0.17,0.1,0.31,0.22,0.4c0.12,0.1,0.28,0.14,0.48,0.14c0.23,0,0.4-0.07,0.52-0.21c0.12-0.14,0.19-0.34,0.19-0.6v-0.4
			c0-0.26-0.06-0.45-0.19-0.6c-0.12-0.14-0.3-0.21-0.52-0.21c-0.12,0-0.24,0.03-0.35,0.1c-0.11,0.06-0.21,0.16-0.3,0.27h-0.64v-2.48
			h2.56v0.63h-1.85v1.06c0.09-0.07,0.19-0.12,0.29-0.16c0.11-0.04,0.22-0.05,0.33-0.05c0.29,0,0.54,0.06,0.74,0.17
			c0.21,0.11,0.36,0.28,0.47,0.49c0.11,0.22,0.16,0.48,0.16,0.78v0.4c0,0.31-0.05,0.57-0.17,0.78c-0.11,0.22-0.27,0.38-0.48,0.49
			c-0.21,0.11-0.47,0.17-0.76,0.17C-100.04,42.43-100.26,42.39-100.46,42.29"/>
	</g>
	<path class="st1" d="M41.07,27c-9.34,2.71-15.5,6.63-16.69,7.43l-7.36-8.78c2.52-1.58,9.8-5.76,20.45-8.62L41.07,27z"/>
	<path class="st5" d="M58.95,14.17v10.2C52.23,24.4,46.17,25.51,41.07,27l-3.59-9.97C43.6,15.39,50.85,14.18,58.95,14.17"/>
	<path class="st6" d="M80.46,16.99l-3.53,9.95c-6.34-1.88-12.4-2.6-17.99-2.57v-10.2C65.6,14.16,72.81,14.97,80.46,16.99"/>
	<path class="st4" d="M101.43,25.41l-7.68,9.16c-5.74-3.56-11.39-6.02-16.81-7.63l3.53-9.95C87.16,18.76,94.19,21.47,101.43,25.41"
		/>
	<path class="st0" d="M15.65,24.15c-0.22-0.06-0.41-0.21-0.56-0.45l-0.76-1.22c-0.15-0.24-0.19-0.47-0.14-0.68
		c0.06-0.21,0.22-0.39,0.49-0.54c0.27-0.15,0.52-0.19,0.74-0.14c0.22,0.06,0.41,0.21,0.56,0.45l0.76,1.22
		c0.15,0.24,0.19,0.47,0.14,0.68c-0.06,0.21-0.22,0.39-0.49,0.54C16.12,24.16,15.87,24.21,15.65,24.15 M16.42,23.38
		c0.02-0.11,0-0.23-0.08-0.36l-0.76-1.22c-0.08-0.13-0.18-0.21-0.29-0.24c-0.11-0.03-0.24-0.01-0.38,0.07
		c-0.14,0.08-0.23,0.17-0.25,0.28c-0.02,0.11,0,0.23,0.08,0.36l0.76,1.22c0.08,0.13,0.18,0.21,0.29,0.24
		c0.11,0.03,0.24,0.01,0.38-0.07C16.31,23.58,16.4,23.48,16.42,23.38z"/>
	<path class="st0" d="M96.44,21.41c-0.09-0.11-0.15-0.23-0.17-0.37c-0.02-0.14-0.01-0.29,0.04-0.45l0,0l0.43,0.19l0,0
		c-0.04,0.11-0.03,0.21,0.01,0.3c0.04,0.09,0.13,0.16,0.25,0.21c0.14,0.06,0.26,0.06,0.38,0.01c0.12-0.05,0.21-0.16,0.29-0.31
		l0.12-0.24c0.08-0.15,0.1-0.29,0.06-0.41c-0.03-0.12-0.12-0.21-0.25-0.27c-0.07-0.03-0.15-0.04-0.24-0.03
		c-0.09,0.01-0.17,0.04-0.26,0.08l-0.39-0.17l0.73-1.49l1.55,0.67l-0.19,0.38l-1.12-0.49l-0.31,0.64c0.07-0.02,0.15-0.02,0.22-0.02
		c0.08,0.01,0.15,0.03,0.22,0.05c0.18,0.08,0.31,0.18,0.4,0.3c0.09,0.12,0.14,0.26,0.14,0.42c0,0.16-0.04,0.33-0.13,0.51l-0.12,0.24
		c-0.09,0.18-0.2,0.32-0.33,0.43c-0.13,0.1-0.28,0.16-0.44,0.17c-0.16,0.01-0.33-0.02-0.51-0.1C96.65,21.6,96.53,21.51,96.44,21.41"
		/>
	<path class="st0" d="M98.58,22.19c-0.07-0.21-0.04-0.44,0.09-0.69l0.67-1.27c0.13-0.25,0.31-0.41,0.53-0.48
		c0.22-0.07,0.47-0.04,0.75,0.09c0.28,0.13,0.46,0.3,0.53,0.5c0.07,0.21,0.04,0.43-0.09,0.69l-0.67,1.27
		c-0.13,0.25-0.31,0.41-0.53,0.48c-0.22,0.07-0.47,0.04-0.75-0.09C98.83,22.57,98.65,22.4,98.58,22.19 M99.69,22.37
		c0.11-0.04,0.2-0.13,0.27-0.26l0.67-1.27c0.07-0.14,0.09-0.26,0.06-0.36c-0.03-0.1-0.12-0.19-0.27-0.26
		c-0.15-0.07-0.28-0.08-0.39-0.04c-0.11,0.04-0.2,0.13-0.27,0.26l-0.67,1.27c-0.07,0.14-0.09,0.26-0.06,0.36
		c0.03,0.11,0.12,0.19,0.27,0.26C99.46,22.4,99.58,22.41,99.69,22.37z"/>
	<path class="st0" d="M100.81,23.24c-0.06-0.21-0.03-0.44,0.11-0.68l0.71-1.25c0.14-0.25,0.32-0.4,0.54-0.47
		c0.22-0.07,0.47-0.03,0.74,0.11c0.28,0.14,0.45,0.31,0.51,0.52c0.07,0.21,0.03,0.44-0.11,0.68l-0.71,1.25
		c-0.14,0.25-0.32,0.4-0.54,0.47c-0.22,0.06-0.47,0.03-0.75-0.11C101.05,23.62,100.88,23.45,100.81,23.24 M101.92,23.45
		c0.11-0.04,0.2-0.12,0.28-0.26l0.71-1.25c0.08-0.13,0.1-0.25,0.07-0.36c-0.03-0.11-0.12-0.2-0.26-0.27
		c-0.15-0.07-0.28-0.09-0.39-0.06c-0.11,0.04-0.2,0.12-0.28,0.26l-0.71,1.25c-0.08,0.13-0.1,0.25-0.07,0.36
		c0.03,0.11,0.12,0.2,0.26,0.27C101.68,23.47,101.81,23.49,101.92,23.45z"/>
	<path class="st0" d="M44.4,31.94H45l1.85,4.72h-0.76l-1.39-3.81l-1.39,3.81h-0.76L44.4,31.94z M43.4,34.99h2.64v0.63H43.4V34.99z"
		/>
	<path class="st0" d="M48.07,36.49c-0.27-0.14-0.47-0.35-0.62-0.61c-0.15-0.26-0.22-0.57-0.22-0.91v-1.34
		c0-0.35,0.07-0.65,0.22-0.91c0.15-0.26,0.35-0.47,0.62-0.61c0.27-0.14,0.58-0.22,0.93-0.22c0.35,0,0.66,0.07,0.93,0.22
		c0.27,0.14,0.47,0.35,0.62,0.61c0.15,0.26,0.22,0.57,0.22,0.91v1.34c0,0.35-0.07,0.65-0.22,0.91c-0.15,0.26-0.35,0.47-0.62,0.61
		c-0.27,0.14-0.58,0.22-0.93,0.22C48.65,36.71,48.34,36.63,48.07,36.49 M49.55,35.92c0.16-0.09,0.28-0.21,0.37-0.37
		c0.09-0.16,0.13-0.35,0.13-0.56v-1.38c0-0.21-0.04-0.4-0.13-0.56c-0.09-0.16-0.21-0.29-0.37-0.37c-0.16-0.09-0.34-0.13-0.55-0.13
		c-0.21,0-0.39,0.04-0.55,0.13c-0.16,0.09-0.28,0.21-0.37,0.37c-0.09,0.16-0.13,0.35-0.13,0.56v1.38c0,0.21,0.04,0.4,0.13,0.56
		c0.09,0.16,0.21,0.29,0.37,0.37c0.16,0.09,0.34,0.13,0.55,0.13C49.2,36.06,49.39,36.01,49.55,35.92z M48.99,35.35l0.37-0.44
		l1.87,1.38l-0.37,0.44L48.99,35.35z"/>
	<rect x="53.89" y="31.94" class="st0" width="0.7" height="4.72"/>
	<polygon class="st0" points="55.84,31.94 56.47,31.94 58.93,35.59 58.85,35.67 58.85,31.94 59.55,31.94 59.55,36.66 58.9,36.66 
		56.45,33.06 56.53,32.98 56.53,36.66 55.84,36.66 	"/>
	<path class="st0" d="M60.79,31.94h0.7v4.72h-0.7V31.94z M61.27,36.03h1.14c0.37,0,0.66-0.09,0.86-0.27
		c0.2-0.18,0.31-0.44,0.31-0.76v-1.39c0-0.33-0.1-0.58-0.31-0.76c-0.2-0.18-0.49-0.27-0.86-0.27h-1.14v-0.63h1.12
		c0.4,0,0.75,0.07,1.03,0.2c0.29,0.13,0.5,0.32,0.65,0.58c0.15,0.25,0.22,0.56,0.22,0.91v1.34c0,0.36-0.08,0.66-0.22,0.91
		c-0.15,0.25-0.37,0.45-0.65,0.58c-0.29,0.13-0.63,0.2-1.04,0.2h-1.11V36.03z"/>
	<path class="st0" d="M65.36,31.94h0.7v4.72h-0.7V31.94z M65.71,31.94h2.89v0.63h-2.89V31.94z M65.71,34h2.51v0.63h-2.51V34z
		 M65.71,36.03h2.89v0.63h-2.89V36.03z"/>
	<path class="st0" d="M70.79,33.96l1.26-2.02h0.79l-1.66,2.55l-1.35,2.16h-0.79L70.79,33.96z M70.82,34.59l-0.11-0.16l-1.63-2.48
		h0.79l1.21,1.92l0.11,0.17l1.72,2.62h-0.79L70.82,34.59z"/>
	<path class="st0" d="M49.79,37.75h0.7v4.72h-0.7V37.75z M50.15,40.01h1.61c0.15,0,0.29-0.03,0.4-0.1c0.12-0.07,0.2-0.16,0.27-0.29
		c0.06-0.12,0.1-0.26,0.1-0.43c0-0.16-0.03-0.3-0.1-0.43c-0.06-0.12-0.15-0.22-0.27-0.29c-0.12-0.07-0.25-0.1-0.4-0.1h-1.61v-0.63
		h1.58c0.3,0,0.56,0.06,0.79,0.18c0.23,0.12,0.4,0.29,0.53,0.51c0.13,0.22,0.19,0.47,0.19,0.76c0,0.29-0.06,0.54-0.19,0.76
		c-0.13,0.22-0.3,0.39-0.53,0.5c-0.23,0.12-0.49,0.18-0.79,0.18h-1.58V40.01z"/>
	<polygon class="st0" points="57.74,37.75 58.4,37.75 58.4,42.47 57.71,42.47 57.71,38.94 57.74,39.15 56.51,41.82 56.02,41.82 
		54.78,39.21 54.81,38.94 54.81,42.47 54.13,42.47 54.13,37.75 54.78,37.75 56.26,40.87 	"/>
	<path class="st0" d="M59.46,41.9l1.75-2.19c0.1-0.13,0.18-0.26,0.24-0.39c0.06-0.14,0.08-0.26,0.08-0.38v-0.01
		c0-0.19-0.06-0.33-0.18-0.44c-0.12-0.1-0.28-0.16-0.5-0.16c-0.21,0-0.37,0.06-0.5,0.17c-0.13,0.11-0.2,0.27-0.23,0.48v0H59.4v0
		c0.04-0.27,0.13-0.5,0.25-0.69c0.13-0.19,0.29-0.34,0.5-0.44c0.2-0.1,0.44-0.15,0.7-0.15c0.3,0,0.56,0.05,0.77,0.14
		c0.21,0.1,0.37,0.24,0.48,0.42c0.11,0.18,0.17,0.41,0.17,0.67v0c0,0.17-0.04,0.34-0.11,0.52c-0.07,0.18-0.18,0.36-0.31,0.53
		l-1.45,1.86h1.9v0.63h-2.83V41.9z"/>
	<rect x="63.11" y="41.78" class="st0" width="0.74" height="0.69"/>
	<path class="st0" d="M65.52,42.38c-0.2-0.09-0.36-0.23-0.48-0.41c-0.12-0.18-0.21-0.39-0.25-0.64v0h0.7v0
		c0.03,0.17,0.1,0.31,0.22,0.4c0.12,0.1,0.28,0.14,0.48,0.14c0.23,0,0.4-0.07,0.52-0.21c0.12-0.14,0.18-0.34,0.18-0.6v-0.4
		c0-0.26-0.06-0.45-0.18-0.6c-0.12-0.14-0.3-0.21-0.52-0.21c-0.12,0-0.24,0.03-0.35,0.1c-0.11,0.06-0.21,0.16-0.3,0.27h-0.64v-2.48
		h2.56v0.63h-1.86v1.06c0.09-0.07,0.19-0.12,0.29-0.16c0.11-0.04,0.22-0.05,0.33-0.05c0.29,0,0.54,0.06,0.74,0.17
		c0.21,0.11,0.36,0.28,0.47,0.49c0.11,0.22,0.16,0.48,0.16,0.78v0.4c0,0.31-0.06,0.57-0.17,0.78c-0.11,0.22-0.27,0.38-0.48,0.49
		c-0.21,0.11-0.47,0.17-0.76,0.17C65.95,42.52,65.72,42.47,65.52,42.38"/>
</g>
<g id="линия_реза">
	<path class="st7" d="M-48.35,0v90.71h-30.48l-0.06-15.41c0-0.13-0.02-0.25-0.04-0.37c-0.17-1.29-1.2-2.31-2.53-2.48V59.28
		c0-1.59-1.32-2.87-2.93-2.87c-1.62,0-2.94,1.28-2.94,2.87v6.78c0,0.45-0.38,0.82-0.84,0.82c-0.2,0-0.38-0.07-0.52-0.18
		c-0.42-0.32-0.76-0.78-1.13-1.16c-1.51-1.48-3.21-2.76-5.03-3.8c-1.87-1.07-3.86-1.9-5.93-2.46c-2.13-0.56-4.33-0.86-6.54-0.86
		c-7.12,0-13.54,2.96-18.11,7.73c-0.04,0.05-0.08,0.1-0.13,0.14c-0.15,0.14-0.35,0.22-0.56,0.22c-0.42,0-0.76-0.28-0.83-0.67v-6.56
		c0-1.59-1.32-2.87-2.94-2.87c-1.62,0-2.94,1.28-2.94,2.87v13.16c-1.38,0.11-2.49,1.16-2.67,2.49c-0.01,0.12-0.02,0.24-0.02,0.37
		l0.07,15.41h-30.54V0H-48.35z"/>
	<path class="st8" d="M117.64,0v90.71H87.16L87.1,75.3c0-0.13-0.02-0.25-0.04-0.37c-0.17-1.29-1.2-2.31-2.53-2.48V59.28
		c0-1.59-1.32-2.87-2.93-2.87c-1.62,0-2.94,1.28-2.94,2.87v6.78c0,0.45-0.38,0.82-0.84,0.82c-0.2,0-0.38-0.07-0.52-0.18
		c-0.42-0.32-0.76-0.78-1.13-1.16c-1.51-1.48-3.21-2.76-5.03-3.8c-1.87-1.07-3.86-1.9-5.93-2.46c-2.13-0.56-4.33-0.86-6.54-0.86
		c-7.12,0-13.54,2.96-18.11,7.73c-0.04,0.05-0.08,0.1-0.13,0.14c-0.15,0.14-0.35,0.22-0.56,0.22c-0.42,0-0.76-0.28-0.83-0.67v-6.56
		c0-1.59-1.32-2.87-2.94-2.87c-1.62,0-2.94,1.28-2.94,2.87v13.16c-1.38,0.11-2.49,1.16-2.67,2.49c-0.01,0.12-0.02,0.24-0.02,0.37
		l0.07,15.41H0V0H117.64z"/>
</g>
</svg>
